<svg width="90" height="38" viewBox="0 0 90 38" fill="none" xmlns="http://www.w3.org/2000/svg">
<path d="M23.2154 34.2779L18.3076 23.3204C17.8579 22.3157 16.4102 22.3157 15.9605 23.3204L11.0547 34.2779L13.5651 35.3679L15.7649 30.456V37.6908H18.5072V30.456L20.707 35.3679L23.2154 34.2779Z" fill="#0028FF"/>
<path d="M11.04 3.72226L15.9479 14.6798C16.3975 15.6844 17.8453 15.6844 18.2949 14.6798L23.2028 3.72226L20.6924 2.63227L18.4925 7.5442V0.309326H15.7503V7.5442L13.5504 2.63227L11.04 3.72226Z" fill="#0028FF"/>
<path d="M45.2394 6.18604H39.7871V31.7523H45.2394V6.18604Z" fill="#0028FF"/>
<path d="M78.4643 25.9568V21.8649H87.4149L88.0965 16.0714H78.4643V11.9795H88.5764L89.2579 6.18604H78.4643H78.0187H73.3306H73.127V31.7503H73.5363H78.0187H78.4643H89.2579L89.9394 25.9568H78.4643Z" fill="#0028FF"/>
<path d="M68.6045 22.9569C67.2778 24.9622 64.9852 26.2905 62.3719 26.2905C58.2646 26.2905 54.9356 23.0125 54.9356 18.9682C54.9356 14.9239 58.2646 11.646 62.3719 11.646C64.3682 11.646 66.1688 12.4302 67.5036 13.693V13.685H67.8625L68.6025 7.39322C66.7414 6.41838 64.6262 5.85254 62.3719 5.85254C55.0142 5.85254 49.0498 11.7254 49.0498 18.9702C49.0498 26.215 55.0142 32.0879 62.3719 32.0879C64.8077 32.0879 67.0842 31.4327 69.0481 30.309V22.9589H68.6045V22.9569Z" fill="#0028FF"/>
<path d="M6.73497 31.8301L13.9193 22.167C14.5786 21.2815 13.8548 20.0466 12.7458 20.1657L0.653602 21.4602L0.950007 24.1445L6.37001 23.5648L0.00634766 27.1822L1.37748 29.521L7.74113 25.9036L4.52099 30.2358L6.73497 31.8301Z" fill="#0028FF"/>
<path d="M27.5201 6.17041L20.3358 15.8334C19.6765 16.7189 20.4004 17.9539 21.5094 17.8348L33.6015 16.5403L33.3051 13.856L27.8851 14.4357L34.2488 10.8183L32.8776 8.47945L26.514 12.0969L29.7341 7.7647L27.5201 6.17041Z" fill="#0028FF"/>
<path d="M33.6069 21.448L21.5147 20.1535C20.4057 20.0344 19.6818 21.2693 20.3412 22.1548L27.5255 31.8179L29.7395 30.2216L26.5194 25.8894L32.883 29.5068L34.2541 27.168L27.8905 23.5506L33.3105 24.1303L33.6069 21.448Z" fill="#0028FF"/>
<path d="M0.647255 16.552L12.7394 17.8465C13.8484 17.9656 14.5723 16.7307 13.9129 15.8452L6.72862 6.18213L4.51465 7.77841L7.73479 12.1106L1.37113 8.49316L0 10.832L6.36366 14.4494L0.94366 13.8697L0.647255 16.552Z" fill="#0028FF"/>
</svg>
