<svg width="125" height="52" viewBox="0 0 125 52" fill="none" xmlns="http://www.w3.org/2000/svg">
<path d="M32.5658 46.7558L25.8126 31.6781C25.1938 30.2958 23.2017 30.2958 22.583 31.6781L15.8325 46.7558L19.2868 48.2557L22.3139 41.4968V51.4521H26.0872V41.4968L29.1143 48.2557L32.5658 46.7558Z" fill="white"/>
<path d="M15.8125 4.71016L22.5657 19.7879C23.1845 21.1702 25.1766 21.1702 25.7953 19.7879L32.5486 4.71016L29.0943 3.21031L26.0672 9.96919V0.013916H22.2938V9.96919L19.2668 3.21031L15.8125 4.71016Z" fill="white"/>
<path d="M62.871 8.10083H55.3687V43.2803H62.871V8.10083Z" fill="white"/>
<path d="M108.589 35.3057V29.6751H120.905L121.843 21.7033H108.589V16.0727H122.503L123.441 8.10083H108.589H107.976H101.525H101.245V43.2776H101.808H107.976H108.589H123.441L124.379 35.3057H108.589Z" fill="white"/>
<path d="M95.0218 31.1772C93.1962 33.9365 90.0415 35.7642 86.4457 35.7642C80.7939 35.7642 76.2132 31.2537 76.2132 25.6887C76.2132 20.1237 80.7939 15.6132 86.4457 15.6132C89.1925 15.6132 91.6702 16.6924 93.5069 18.4299V18.419H94.0008L95.0191 9.76136C92.4581 8.41997 89.5476 7.64136 86.4457 7.64136C76.3214 7.64136 68.1143 15.7225 68.1143 25.6914C68.1143 35.6604 76.3214 43.7415 86.4457 43.7415C89.7973 43.7415 92.9298 42.84 95.6322 41.2937V31.18H95.0218V31.1772Z" fill="white"/>
<path d="M9.88806 43.387L19.7738 30.0905C20.681 28.8721 19.685 27.1728 18.159 27.3367L1.52002 29.1179L1.92788 32.8116L9.38587 32.0138L0.629395 36.9915L2.51609 40.2097L11.2726 35.2321L6.8416 41.1932L9.88806 43.387Z" fill="white"/>
<path d="M38.4889 8.07886L28.6032 21.3753C27.6959 22.5938 28.692 24.2931 30.218 24.1291L46.8569 22.3479L46.4491 18.6543L38.9911 19.452L47.7476 14.4744L45.8609 11.2561L37.1044 16.2338L41.5354 10.2726L38.4889 8.07886Z" fill="white"/>
<path d="M46.8647 29.1009L30.2258 27.3196C28.6998 27.1557 27.7037 28.855 28.611 30.0734L38.4967 43.3699L41.5432 41.1734L37.1122 35.2123L45.8687 40.1899L47.7554 36.9716L38.9989 31.994L46.4569 32.7917L46.8647 29.1009Z" fill="white"/>
<path d="M1.51172 22.3647L18.1507 24.146C19.6767 24.3099 20.6727 22.6106 19.7655 21.3922L9.87976 8.0957L6.8333 10.2922L11.2643 16.2533L2.50779 11.2757L0.621094 14.494L9.37756 19.4716L1.91958 18.6739L1.51172 22.3647Z" fill="white"/>
</svg>
